Coordinates
version=1
nRows=16
nColumns=22
inDegrees=yes

Units are S.I. units (second, meters, Newtons, ...)
If the header above contains a line with 'inDegrees', this indicates whether rotational values are in degrees (yes) or radians (no).

endheader
time	pelvis_tilt	pelvis_list	pelvis_rotation	pelvis_tx	pelvis_ty	pelvis_tz	hip_flexion_r	hip_adduction_r	hip_rotation_r	knee_angle_r	ankle_angle_r	subtalar_angle_r	hip_flexion_l	hip_adduction_l	hip_rotation_l	knee_angle_l	ankle_angle_l	subtalar_angle_l	lumbar_extension	lumbar_bending	lumbar_rotation
      5.59000000	     -0.96258844	     -2.00911143	   -121.16924330	      0.54230455	      0.91255314	      0.60083394	      9.44370239	     10.57612879	     -6.04867543	    -20.11852270	      5.22917115	    -13.24276952	     12.23239929	     -8.77155545	     -5.75622218	    -64.80737748	     -6.59800776	     12.35786638	     -7.23890289	     -3.00310060	     -1.58596554
      5.60000000	     -0.98924468	     -2.04332255	   -122.53279441	      0.53798453	      0.91338683	      0.60578170	      8.68250921	     10.75054173	     -4.73277886	    -19.84924965	      5.29766110	    -13.14884122	     13.05157393	     -9.17899478	     -5.73865299	    -64.05591368	     -5.17657602	     12.14171614	     -7.25871182	     -3.17640608	     -1.16397864
      5.61000000	     -1.04456278	     -2.09145846	   -123.89774754	      0.53367698	      0.91415290	      0.61057205	      7.89433740	     10.91846259	     -3.41245024	    -19.57864383	      5.37879030	    -13.09859663	     13.77766678	     -9.61392678	     -5.72456744	    -63.09480462	     -3.75432119	     11.76096043	     -7.31443554	     -3.33572666	     -0.77941855
      5.62000000	     -1.13674398	     -2.16407360	   -125.25032222	      0.52942578	      0.91485993	      0.61521003	      7.07694611	     11.07475483	     -2.10372459	    -19.32444262	      5.47703063	    -13.08252550	     14.40125662	    -10.06951862	     -5.71340734	    -61.93874523	     -2.33016511	     11.13379210	     -7.43138284	     -3.48032047	     -0.43276960
      5.63000000	     -1.24044818	     -2.17598750	   -126.62137926	      0.52515551	      0.91537593	      0.61968110	      6.31873976	     11.26045139	     -0.73816777	    -19.09169906	      5.58985709	    -13.08825200	     15.01117293	    -10.59400843	     -5.75008236	    -60.61464900	     -1.03189610	     10.52069111	     -7.49900656	     -3.58480070	     -0.09159469
      5.64000000	     -1.37556150	     -2.20073441	   -127.97736388	      0.52095413	      0.91583708	      0.62408545	      5.55553706	     11.43026172	      0.59200276	    -18.90722257	      5.71919707	    -13.10464462	     15.51924199	    -11.13199094	     -5.82184752	    -59.10458330	      0.21048491	      9.63391012	     -7.61080139	     -3.66431968	      0.21013962
      5.65000000	     -1.52369356	     -2.20909608	   -129.31305325	      0.51685205	      0.91618955	      0.62843989	      4.84197755	     11.58646413	      1.87473371	    -18.80285355	      5.88101433	    -13.12056764	     15.96922249	    -11.66504542	     -5.90185248	    -57.42878340	      1.38775318	      8.55621027	     -7.72666617	     -3.71374974	      0.48854389
      5.66000000	     -1.64922702	     -2.13923137	   -130.67764484	      0.51273501	      0.91635164	      0.63268312	      4.23307177	     11.76249142	      3.22901230	    -18.75108627	      6.04477313	    -13.12337892	     16.42239391	    -12.23708895	     -6.06759445	    -55.59376873	      2.35897982	      7.62337219	     -7.75435161	     -3.73260742	      0.78814059
      5.67000000	     -1.77844833	     -2.07262353	   -132.01722575	      0.50875978	      0.91644162	      0.63692234	      3.67752787	     11.90569393	      4.49837139	    -18.80818735	      6.25900590	    -13.11292889	     16.79601499	    -12.76508541	     -6.24692484	    -53.59222831	      3.29569194	      6.53144774	     -7.80312737	     -3.73183926	      1.05673316
      5.68000000	     -1.87278041	     -1.95174985	   -133.37941433	      0.50483230	      0.91637734	      0.64107656	      3.22011395	     12.04669185	      5.81804338	    -18.92601334	      6.48036810	    -13.08693480	     17.15906267	    -13.27945861	     -6.48343633	    -51.43884352	      4.02570928	      5.62767361	     -7.78421874	     -3.71433541	      1.35607025
      5.69000000	     -1.93623021	     -1.79823254	   -134.74722300	      0.50097143	      0.91617256	      0.64517593	      2.84760676	     12.17555876	      7.13664857	    -19.11895784	      6.73376720	    -13.04795918	     17.49199509	    -13.75105992	     -6.73845129	    -49.13835486	      4.62431832	      4.87335864	     -7.71903651	     -3.68696737	      1.65316510
      5.70000000	     -1.98549366	     -1.63992057	   -136.10878147	      0.49723580	      0.91587074	      0.64925408	      2.53058541	     12.28002882	      8.41066236	    -19.38841454	      7.02858485	    -12.99398724	     17.76416240	    -14.16273187	     -6.99607663	    -46.69838587	      5.15491019	      4.20800500	     -7.65379195	     -3.64582167	      1.94654415
      5.71000000	     -1.97313004	     -1.41407244	   -137.47077505	      0.49360120	      0.91533935	      0.65325310	      2.35235476	     12.38733808	      9.67864827	    -19.73430581	      7.36758927	    -12.94408335	     18.07680426	    -14.53015592	     -7.21841774	    -44.15109272	      5.55669612	      3.88774256	     -7.49413405	     -3.58684066	      2.26625250
      5.72000000	     -1.95370390	     -1.21370978	   -138.81982100	      0.49006894	      0.91478108	      0.65726319	      2.16271491	     12.45848170	     10.93542852	    -20.08382523	      7.70635797	    -12.87649875	     18.30102692	    -14.81393313	     -7.41181524	    -41.47685218	      5.83614472	      3.61821651	     -7.35983138	     -3.52987440	      2.56841082
      5.73000000	     -1.91501335	     -1.01114996	   -140.13634510	      0.48666471	      0.91413455	      0.66128868	      2.00233999	     12.50567308	     12.14532163	    -20.44826200	      8.06713841	    -12.79714760	     18.49095640	    -15.02582117	     -7.53672361	    -38.71115592	      6.02598432	      3.52220899	     -7.22022991	     -3.46268209	      2.84776913
      5.74000000	     -1.87876328	     -0.82452088	   -141.41264544	      0.48336253	      0.91345571	      0.66533350	      1.82960053	     12.52914860	     13.29896857	    -20.80243313	      8.43318625	    -12.69335513	     18.61759506	    -15.16682275	     -7.57118491	    -35.86297976	      6.10951015	      3.64627702	     -7.10641869	     -3.38967885	      3.10703026
